<svg viewBox="0 0 1024 1024" xmlns="http://www.w3.org/2000/svg"><path d="m867.542 263.893-305.007-176.435c-28.637-16.566-75.066-16.566-103.705 0l-305.007 176.435c-22.526 13.03-27.32 32.427-14.408 48.176l347.368 198.34c17.96 3.572 37.83 3.013 55.17-1.715l335.624-192.06c18.058-16.407 14.725-38.42-10.036-52.743zm-548.776 55.02c-24.917 14.783-65.314 14.783-90.23 0-24.916-14.785-24.914-38.754 0-53.538 24.918-14.784 65.315-14.784 90.23 0 24.917 14.782 24.917 38.752 0 53.537zm237.954 141.187c-24.917 14.784-65.314 14.784-90.23 0s-24.914-38.753 0-53.537c24.918-14.784 65.315-14.784 90.23 0 24.917 14.784 24.917 38.753 0 53.537zm-90.232-194.206c24.917-14.784 65.314-14.784 90.23 0s24.916 38.753 0 53.537-65.315 14.785-90.23 0c-24.917-14.783-24.917-38.752 0-53.536zm90.232-87.13c-24.917 14.784-65.314 14.784-90.23 0s-24.914-38.753 0-53.537c24.918-14.784 65.315-14.784 90.23 0 24.917 14.784 24.917 38.753 0 53.537zm237.075 140.67c-24.917 14.783-65.314 14.783-90.23 0s-24.914-38.754 0-53.538c24.918-14.784 65.315-14.784 90.23 0 24.917 14.784 24.915 38.752 0 53.537zm94.72 6.338-355.185 203.256c-5.42 7.536-10.056 15.8-13.676 24.312h1.727v381.977c9.444 9.338 24.635 10.166 41.77.27l293.386-169.417c28.65-16.544 51.875-56.774 51.875-89.858v-314.882c0-19.146-7.788-31.683-19.894-35.66zm-245.565 469.61c.048 27.54-20.027 61.524-44.84 75.902s-44.965 3.708-45.013-23.833v-.194c-.048-27.54 20.027-61.524 44.84-75.903s44.965-3.708 45.013 23.833zm0-245.02c.048 27.54-20.027 61.523-44.84 75.902s-44.965 3.708-45.013-23.833v-.194c-.048-27.54 20.027-61.525 44.84-75.903s44.965-3.708 45.013 23.833zm111.817 180.462c.048 27.54-20.027 61.525-44.84 75.903s-44.965 3.708-45.013-23.833v-.195c-.048-27.542 20.027-61.526 44.84-75.904s44.965-3.708 45.013 23.833v.194zm0-245.02c.048 27.54-20.027 61.525-44.84 75.903s-44.965 3.708-45.013-23.833v-.195c-.048-27.542 20.027-61.525 44.84-75.904s44.965-3.708 45.013 23.833v.194zm111.818 180.463c.048 27.54-20.027 61.524-44.84 75.903s-44.965 3.708-45.013-23.833v-.195c-.048-27.54 20.027-61.525 44.84-75.903s44.965-3.71 45.013 23.832v.195zm0-245.02c.048 27.54-20.027 61.525-44.84 75.903s-44.965 3.708-45.013-23.833v-.195c-.048-27.54 20.027-61.525 44.84-75.903 24.81-14.38 44.965-3.71 45.013 23.832v.195zm-362.885 134.013c-4.214-10.41-9.977-20.502-16.832-29.414l-351.232-200.546c-13.015 3.367-21.49 16.152-21.49 36.128v314.882c0 33.085 23.224 73.315 51.874 89.86l293.385 169.417c18.756 10.83 35.185 8.822 44.296-3.14v-377.187zm-257.87 163.077c-.048 27.54-20.203 38.212-45.014 23.833s-44.887-48.362-44.84-75.903v-.195c.05-27.54 20.204-38.212 45.015-23.833s44.888 48.36 44.84 75.902v.195zm0-245.02c-.048 27.54-20.203 38.212-45.014 23.833s-44.887-48.362-44.84-75.903v-.195c.05-27.54 20.204-38.212 45.015-23.833s44.888 48.36 44.84 75.902v.195zm223.635 374.136c-.048 27.54-20.203 38.212-45.014 23.833s-44.886-48.362-44.838-75.903v-.195c.048-27.54 20.203-38.212 45.014-23.833s44.887 48.362 44.84 75.903v.195zm0-245.02c-.048 27.54-20.203 38.212-45.014 23.833s-44.886-48.362-44.838-75.903v-.195c.048-27.54 20.203-38.212 45.014-23.833s44.887 48.362 44.84 75.903v.195z"/></svg>